<?xml version="1.0" encoding="UTF-8" standalone="no"?>
<!DOCTYPE svg PUBLIC "-//W3C//DTD SVG 1.1//EN" "http://www.w3.org/Graphics/SVG/1.1/DTD/svg11.dtd">
<svg width="100%" height="100%" viewBox="0 0 400 400" version="1.1" xmlns="http://www.w3.org/2000/svg" xmlns:xlink="http://www.w3.org/1999/xlink" xml:space="preserve" xmlns:serif="http://www.serif.com/" style="fill-rule:evenodd;clip-rule:evenodd;stroke-linejoin:round;stroke-miterlimit:2;">
    <g transform="matrix(1.99573,0,0,1.99573,-148.084,-209.905)">
        <g transform="matrix(1.23325,0,0,1.30417,108.836,-2.56959)">
            <path d="M53.176,130.781C69.913,130.781 83.502,143.631 83.502,159.458C83.502,175.286 69.913,188.136 53.176,188.136C36.438,188.136 22.849,175.286 22.849,159.458C22.849,143.631 36.438,130.781 53.176,130.781ZM53.176,135.392C39.129,135.392 27.725,146.176 27.725,159.458C27.725,172.741 39.129,183.525 53.176,183.525C67.222,183.525 78.627,172.741 78.627,159.458C78.627,146.176 67.222,135.392 53.176,135.392Z" style="fill:white;"/>
        </g>
        <g transform="matrix(-1.28057,-1.56824e-16,1.56824e-16,-1.28057,327.178,401.418)">
            <path d="M94.322,179.331C93.976,179.012 93.643,178.678 93.323,178.345C88.779,173.682 85.754,168.112 84.235,162.249L41.036,229.193L109.167,187.859C104.21,186.434 99.506,183.915 95.415,180.317C95.042,180.011 94.682,179.678 94.322,179.331Z" style="fill:white;"/>
        </g>
        <g transform="matrix(0.233333,0,0,0.233333,127.614,160.348)">
            <g transform="matrix(0.915139,0,0,0.915139,31.3528,19.3092)">
                <circle cx="184.913" cy="189.847" r="81.955" style="fill:white;"/>
            </g>
            <g transform="matrix(1.00771,0,0,1.00771,14.2344,3.96068)">
                <path d="M158.951,117.926C166.805,114.983 175.286,113.328 184.139,113.211C184.122,113.325 184.068,113.452 184.005,113.478C183.339,113.749 182.789,114.23 182.076,114.429C180.613,114.839 179.174,115.329 177.72,115.768C177.225,115.917 176.824,116.19 176.495,116.569C175.933,117.22 175.223,117.649 174.455,118C173.864,118.27 173.331,118.622 172.803,119.006C172.191,119.45 171.52,119.826 170.835,120.151C170.032,120.531 169.301,121.019 168.66,121.606C167.35,122.806 165.817,123.646 164.242,124.399C163.467,124.771 162.575,124.901 161.731,125.124C161.513,125.182 161.277,125.171 161.053,125.209C160.186,125.357 159.349,125.587 158.586,126.046C158.26,126.243 157.898,126.378 157.569,126.568C156.734,127.049 155.839,127.368 154.888,127.48C154.293,127.549 153.796,127.798 153.324,128.122C152.759,128.51 152.215,128.926 151.65,129.314C150.805,129.896 149.947,130.457 149.103,131.04C148.823,131.233 148.554,131.449 148.307,131.684C147.783,132.183 147.285,132.708 146.759,133.206C146.541,133.412 146.297,133.607 146.035,133.75C145.505,134.035 145.25,133.935 144.942,133.394C144.83,133.196 144.719,132.996 144.585,132.813C144.099,132.145 144.13,131.446 144.541,130.784C145.079,129.917 145.625,129.084 146.484,128.432C147.255,127.848 147.927,127.052 148.435,126.222C149.223,124.935 150.398,124.255 151.703,123.696C152.053,123.546 152.415,123.425 152.765,123.277C153.207,123.091 153.55,122.828 153.589,122.287C153.617,121.909 153.863,121.668 154.213,121.544C154.978,121.273 155.634,120.843 156.243,120.303C156.575,120.007 157.027,119.841 157.434,119.635C158.692,118.999 159.957,118.378 161.213,117.74C161.576,117.555 161.981,117.412 162.081,116.877C161.773,117.016 161.447,117.125 161.16,117.298C160.486,117.706 159.717,117.756 158.979,117.924C158.97,117.926 158.961,117.925 158.951,117.926ZM192.915,114.068C193.085,113.914 193.274,113.797 193.494,113.797C193.541,113.797 193.59,113.803 193.641,113.815C194.42,113.994 195.246,113.822 196.009,114.139C196.245,114.238 196.494,114.215 196.741,114.097C222.411,118.103 243.746,135.19 253.719,158.324C254.052,159.111 254.375,159.901 254.673,160.7C255.792,163.694 256.718,166.753 257.464,169.86C257.872,171.559 258.233,173.273 258.512,174.997C258.767,176.569 258.829,178.173 259.072,179.748C259.417,181.983 259.257,184.23 259.329,186.471C259.352,187.155 259.347,187.838 259.17,188.514C259.084,188.839 259.111,189.195 259.108,189.537C259.1,190.261 259.084,190.986 259.11,191.71C259.155,193.05 258.848,194.353 258.737,195.675C258.638,196.855 258.337,197.994 258.171,199.158C258.039,200.071 257.787,200.869 256.801,201.268C256.785,201.743 256.766,202.194 256.753,202.645C256.732,203.365 256.808,204.091 256.583,204.8C256.489,205.095 256.527,205.413 256.749,205.663C257.017,205.966 256.957,206.309 256.86,206.637C256.187,208.899 255.537,211.168 254.613,213.346C254.45,213.729 254.212,214.08 254.022,214.453C253.71,215.061 253.408,215.676 253.106,216.289C253.074,216.355 253.044,216.442 253.061,216.507C253.327,217.567 252.567,218.279 252.174,219.113C252.125,219.218 251.928,219.314 251.803,219.31C251.587,219.301 251.491,219.109 251.482,218.907C251.47,218.641 251.44,218.364 251.499,218.112C251.657,217.445 251.845,216.793 251.763,216.09C251.74,215.891 251.893,215.662 251.992,215.46C252.266,214.903 252.43,214.322 252.397,213.698C252.32,212.18 252.758,210.758 253.242,209.354C253.471,208.69 253.643,208.06 253.451,207.352C253.377,207.077 253.384,206.724 253.492,206.464C253.749,205.848 253.834,205.221 253.82,204.567C253.817,204.416 253.833,204.262 253.857,204.112C253.926,203.683 254.061,203.571 254.548,203.53C254.73,203.515 254.913,203.509 255.058,203.501C255.132,203.378 255.198,203.317 255.207,203.248C255.317,202.42 255.505,201.592 255.502,200.764C255.497,199.352 255.603,197.953 255.769,196.556C255.876,195.652 256.047,194.755 256.153,193.852C256.215,193.324 256.206,192.789 256.231,192.257C256.256,191.737 256.143,191.271 255.702,190.939C255.359,190.681 255.273,190.315 255.303,189.922C255.408,188.568 255.073,187.278 254.761,185.982C254.647,185.51 254.562,185.031 254.464,184.557C254.036,184.501 253.828,184.753 253.729,185.023C253.158,186.601 252.136,187.959 251.588,189.559C251.235,190.593 250.627,191.544 250.1,192.514C249.899,192.884 249.634,193.232 249.641,193.664C249.657,194.829 249.266,195.912 249.011,197.021C248.95,197.281 248.901,197.544 248.824,197.799C248.625,198.453 248.662,199.056 249.051,199.654C249.229,199.927 249.331,200.291 249.351,200.62C249.394,201.341 249.37,202.068 249.361,202.791C249.354,203.311 249.066,203.632 248.6,203.824C248.09,204.035 247.707,203.878 247.53,203.333C247.45,203.084 247.428,202.813 247.405,202.549C247.39,202.361 247.416,202.169 247.427,201.979C247.435,201.83 247.447,201.681 247.464,201.463C247.235,201.408 247.03,201.335 246.82,201.313C246.388,201.269 246.097,201.059 246.008,200.637C245.898,200.118 245.803,199.594 245.741,199.068C245.701,198.729 245.722,198.383 245.733,198.04C245.774,196.777 245.482,195.548 245.377,194.3C245.267,192.966 244.958,191.676 244.643,190.383C244.554,190.019 244.574,189.627 244.569,189.247C244.557,188.408 244.563,187.57 244.562,186.732C244.562,186.192 244.486,185.675 244.137,185.247C243.695,185.119 243.39,185.414 243.038,185.523C242.569,185.667 242.335,185.595 242.093,185.149C241.766,184.546 241.489,183.916 241.157,183.316C240.807,182.684 240.454,182.048 240.036,181.461C239.357,180.511 238.401,180.141 237.247,180.331C236.523,180.45 235.813,180.451 235.092,180.296C234.098,180.082 233.094,179.906 232.091,179.713C231.979,179.962 232.188,180.069 232.325,180.145C232.946,180.494 233.365,181.019 233.731,181.611C234.031,182.097 234.36,182.565 234.681,183.037C235.137,183.709 235.172,184.4 234.711,185.066C233.714,186.502 232.809,188.005 231.553,189.251C231.18,189.622 230.878,190.073 230.586,190.516C230.361,190.856 230.096,191.092 229.685,191.143C229.61,191.152 229.537,191.175 229.461,191.186C228.568,191.319 227.774,191.638 227.211,192.388C225.932,193.222 224.594,193.991 223.131,194.389C222.084,194.674 221.093,194.935 220.279,195.691C219.903,196.04 219.421,196.168 218.903,196.149C218.645,196.139 218.385,196.147 218.12,196.147C218.029,196.671 218.285,196.956 218.668,197.191C219.672,197.804 220.732,197.92 221.848,197.578C222.538,197.366 223.224,197.136 223.918,196.939C224.17,196.867 224.443,196.831 224.704,196.841C225.328,196.866 225.693,197.263 225.648,197.877C225.597,198.56 225.501,199.232 225.253,199.885C224.71,201.323 223.969,202.625 222.976,203.81C222.263,204.661 221.529,205.455 220.644,206.137C219.743,206.83 218.946,207.658 218.085,208.405C217.568,208.853 217.01,209.252 216.477,209.682C215.618,210.372 214.732,211.029 213.964,211.83C212.648,213.202 211.732,214.805 211.143,216.601C211.039,216.918 211.032,217.275 211.025,217.614C211.009,218.491 210.977,219.37 211.028,220.244C211.109,221.623 210.85,222.974 210.756,224.338C210.744,224.524 210.683,224.712 210.616,224.888C210.061,226.347 209.169,227.584 207.94,228.524C207.129,229.145 206.2,229.612 205.322,230.146C204.803,230.462 204.294,230.767 203.956,231.32C203.584,231.927 203.356,232.541 203.416,233.258C203.437,233.522 203.443,233.797 203.392,234.055C203.344,234.308 203.273,234.596 203.112,234.781C202.587,235.383 202.053,235.987 201.288,236.309C201.078,236.398 200.883,236.521 200.675,236.618C200.302,236.791 200.089,237.067 200.016,237.483C199.756,238.966 198.747,239.977 197.686,240.89C196.445,241.957 195.041,242.811 193.555,243.519C192.891,243.836 192.204,244.046 191.465,244.008C190.692,243.967 189.927,244.048 189.216,244.317C188.229,244.691 187.433,244.246 186.611,243.856C186.35,243.731 186.229,243.461 186.248,243.186C186.3,242.42 185.957,241.79 185.638,241.136C185.022,239.869 184.451,238.582 183.843,237.311C183.622,236.849 183.528,236.371 183.56,235.871C183.626,234.86 183.369,233.901 183.069,232.958C182.933,232.533 182.662,232.149 182.435,231.757C182.054,231.099 181.647,230.455 181.277,229.792C181.15,229.563 181.033,229.297 181.019,229.042C180.932,227.328 180.849,225.615 181.76,224.036C182.042,223.548 182.204,222.99 182.406,222.458C182.797,221.433 182.641,220.41 182.242,219.447C181.559,217.796 180.794,216.177 180.064,214.544C179.845,214.054 179.568,213.607 179.19,213.217C178.553,212.557 178.286,211.784 178.297,210.839C178.312,209.497 178.374,208.178 178.796,206.894C178.843,206.749 178.875,206.6 178.908,206.452C179.187,205.193 179.002,204.954 177.732,204.939C177.121,204.931 176.509,204.902 175.903,204.944C175.132,204.996 174.57,204.687 174.162,204.067C173.841,203.581 173.467,203.17 172.933,202.907C172.577,202.732 172.241,202.651 171.837,202.746C171.136,202.914 170.425,203.042 169.712,203.161C168.956,203.287 168.226,203.477 167.56,203.871C167.078,204.156 166.59,204.21 166.028,204.056C165.26,203.845 164.466,203.73 163.681,203.589C163.458,203.549 163.222,203.533 162.999,203.561C162.171,203.667 161.343,203.778 160.521,203.922C160.012,204.011 159.537,203.973 159.079,203.734C158.842,203.61 158.613,203.468 158.365,203.374C157.72,203.13 157.258,202.712 157.03,202.055C156.747,201.239 156.164,200.736 155.376,200.436C154.784,200.21 154.384,199.788 154.017,199.272C153.423,198.438 152.748,197.66 152.099,196.867C151.641,196.307 151.073,195.814 150.726,195.194C149.809,193.557 149.28,191.832 150.089,189.965C150.351,189.361 150.468,188.733 150.446,188.073C150.426,187.464 150.432,186.853 150.437,186.244C150.442,185.792 150.299,185.446 149.894,185.188C149.647,185.031 149.435,184.789 149.271,184.544C149.026,184.177 148.985,183.756 149.165,183.341C149.317,182.993 149.473,182.643 149.661,182.313C150.11,181.519 150.584,180.745 150.882,179.869C150.997,179.53 151.319,179.258 151.557,178.964C151.914,178.52 152.296,178.095 152.638,177.641C153.255,176.821 153.824,175.963 154.464,175.162C154.817,174.72 155.25,174.332 155.689,173.971C156.304,173.464 156.954,172.997 157.601,172.531C157.862,172.342 158.047,172.13 158.111,171.808C158.178,171.473 158.253,171.136 158.363,170.812C158.721,169.751 159.258,168.832 160.166,168.107C160.935,167.493 161.627,166.768 162.27,166.021C162.617,165.617 162.977,165.39 163.483,165.262C164.241,165.07 165,165.01 165.744,165.194C166.347,165.342 166.874,165.214 167.411,165.012C168.194,164.717 168.958,164.364 169.755,164.113C170.365,163.919 171.013,163.842 171.646,163.719C172.279,163.596 172.926,163.523 173.546,163.35C174.099,163.195 174.593,163.232 175.086,163.504C175.219,163.578 175.364,163.631 175.498,163.703C176,163.975 176.519,164.021 177.033,163.765C177.6,163.481 178.198,163.44 178.813,163.452C179.028,163.457 179.245,163.454 179.461,163.45C179.818,163.445 180.174,163.44 180.528,163.468C180.977,163.506 181.428,163.609 181.859,163.744C182.273,163.874 182.357,164.205 182.117,164.551C182.052,164.645 181.977,164.733 181.896,164.812C181.477,165.216 181.482,165.655 181.71,166.167C182.019,166.861 182.277,167.578 182.547,168.289C182.709,168.718 183.007,168.991 183.445,169.085C184.432,169.298 185.282,169.785 186.125,170.317C186.669,170.661 187.274,170.914 187.867,171.174C188.667,171.526 189.48,171.847 190.288,172.18C190.359,172.209 190.43,172.236 190.503,172.26C190.958,172.41 191.27,172.244 191.341,171.79C191.381,171.528 191.377,171.259 191.389,170.993C191.401,170.727 191.391,170.458 191.419,170.194C191.479,169.628 191.646,169.456 192.212,169.422C193.597,169.338 194.943,169.524 196.236,170.051C197.576,170.598 198.933,171.096 200.358,171.378C200.955,171.496 201.552,171.637 202.156,171.682C202.523,171.71 202.912,171.609 203.274,171.507C203.911,171.329 204.528,171.272 205.182,171.462C205.741,171.624 206.306,171.561 206.844,171.275C207.261,171.053 207.59,170.782 207.804,170.344C208.188,169.554 208.617,168.796 208.565,167.864C208.547,167.536 208.706,167.201 208.78,166.868C209.019,165.779 208.601,165.465 207.543,165.72C207.324,165.773 207.111,165.88 206.918,165.997C206.199,166.434 205.548,166.302 204.9,165.831C204.665,165.66 204.374,165.566 204.14,165.454C203.094,166.354 203.079,166.385 201.912,165.824C201.357,165.557 200.907,165.655 200.395,165.885C199.891,166.11 199.703,166.005 199.541,165.492C199.127,164.189 198.726,162.882 198.32,161.577C198.309,161.541 198.303,161.502 198.293,161.466C197.979,160.395 197.316,160.098 196.304,160.581C196.095,160.681 195.858,160.813 195.919,161.077C195.966,161.282 196.099,161.495 196.255,161.639C196.383,161.757 196.605,161.773 196.779,161.848C197.023,161.952 197.273,162.051 197.5,162.187C197.675,162.291 197.772,162.498 197.656,162.678C197.309,163.216 196.995,163.769 196.293,163.981C195.792,164.131 195.337,164.437 194.864,164.68C194.662,164.783 194.476,164.924 194.268,165.014C193.873,165.186 193.634,165.126 193.356,164.808C193.232,164.665 193.108,164.516 193.011,164.354C192.691,163.822 192.278,163.379 191.769,163.03C191.421,162.792 191.248,162.494 191.327,162.062C191.436,161.468 191.164,161.038 190.706,160.654C190.377,160.75 190.053,160.844 189.744,160.933C189.591,161.272 189.49,161.605 189.305,161.882C189.116,162.163 188.85,162.393 188.609,162.637C188.154,163.098 187.661,163.525 187.241,164.016C186.736,164.603 186.109,164.772 185.393,164.665C184.553,164.539 183.922,164.047 183.475,163.353C183.156,162.856 183.449,162.353 184.046,162.304C184.387,162.275 184.731,162.281 185.074,162.282C185.616,162.285 186.13,162.189 186.581,161.922C186.741,161.657 186.639,161.441 186.48,161.279C185.893,160.681 185.331,160.048 184.681,159.527C183.612,158.67 182.522,157.841 181.598,156.82C181.292,156.483 180.991,156.139 180.702,155.787C180.321,155.325 180.212,155.278 179.633,155.561C178.947,155.897 178.256,156.215 177.503,156.37C177.094,156.454 176.686,156.567 176.273,156.589C175.902,156.608 175.525,156.519 175.202,156.484C174.78,156.736 174.848,157.112 174.832,157.438C174.808,157.915 174.579,158.221 174.154,158.401C173.874,158.521 173.591,158.631 173.315,158.76C172.936,158.936 172.514,159.065 172.197,159.321C171.174,160.147 170.911,160.017 170.982,161.314C171.004,161.739 170.757,162.034 170.378,162.204C169.857,162.437 169.321,162.636 168.807,162.884C167.847,163.348 166.884,163.811 165.949,164.322C165.248,164.706 164.611,164.715 163.891,164.348C163.324,164.057 162.684,163.898 162.067,163.713C161.109,163.428 160.798,163.114 160.716,162.126C160.638,161.174 160.637,160.223 161.057,159.323C161.449,158.486 161.698,157.612 161.651,156.673C161.62,156.049 161.969,155.58 162.36,155.165C162.522,154.993 162.83,154.883 163.075,154.878C164.255,154.851 165.438,154.828 166.617,154.891C167.094,154.916 167.562,155.162 168.033,155.311C168.75,155.537 169.077,155.355 169.311,154.624C169.561,153.843 169.647,153.065 169.364,152.271C169.289,152.057 169.242,151.829 169.218,151.603C169.135,150.846 168.742,150.345 168.03,150.082C167.888,150.03 167.761,149.937 167.633,149.855C167.364,149.682 167.155,149.467 167.193,149.115C167.232,148.768 167.462,148.566 167.776,148.487C168.254,148.366 168.738,148.219 169.225,148.199C169.893,148.172 170.482,148.033 171.041,147.637C171.4,147.381 171.857,147.265 172.266,147.088C172.26,146.856 172.088,146.857 171.946,146.846C171.409,146.805 170.887,146.867 170.368,147.03C169.599,147.271 168.805,147.365 167.999,147.296C167.848,147.283 167.696,147.264 167.55,147.226C167.274,147.154 167.151,146.817 167.329,146.585C167.515,146.345 167.734,146.132 167.938,145.906C168.039,145.793 168.138,145.68 168.244,145.559C168.165,145.222 168.089,144.899 168.004,144.536C168.545,144.119 168.912,143.607 168.951,142.916C169.272,142.8 169.554,142.697 169.86,142.586C169.856,142.477 169.892,142.338 169.839,142.272C169.415,141.751 169.097,141.766 168.809,142.31C168.739,142.444 168.659,142.582 168.625,142.727C168.346,143.948 167.399,144.532 166.383,144.995C165.728,145.293 165.008,145.456 164.268,145.393C163.528,145.33 163.256,144.902 163.505,144.226C163.635,143.874 163.717,143.502 163.858,143.154C164.261,142.169 164.653,141.144 165.657,140.615C166.148,140.356 166.734,140.273 167.283,140.133C167.535,140.068 167.802,140.059 168.068,140.023C168.54,139.249 168.662,138.524 168.067,137.782C167.844,137.504 167.902,137.211 168.13,136.952C168.599,136.417 169.145,136.04 169.901,136.059C170.166,136.066 170.432,136.062 170.697,136.058C171.003,136.053 171.309,136.048 171.614,136.06C172.144,136.081 172.272,136.207 172.399,136.711C172.624,137.603 172.791,138.5 172.525,139.415C172.431,139.734 172.507,140.013 172.688,140.279C173.203,141.04 173.619,141.842 173.859,142.74C173.92,142.968 174.165,143.153 174.343,143.342C174.418,143.421 174.535,143.463 174.637,143.515C175.431,143.911 175.791,144.189 174.95,145.14C174.934,145.157 174.955,145.207 174.969,145.314C175.402,145.231 175.741,145.027 175.954,144.649C176.604,143.493 177.744,143.197 178.909,142.945C179.461,142.825 180.018,142.728 180.483,142.638C180.774,142.272 180.691,141.974 180.659,141.669C180.596,141.067 180.537,140.461 180.524,139.856C180.511,139.203 180.812,138.683 181.328,138.289C181.479,138.174 181.666,138.097 181.794,137.962C182.25,137.477 182.745,137.366 183.33,137.718C183.416,137.769 183.54,137.754 183.646,137.767C183.492,137.404 183.591,136.918 183.069,136.672C182.535,136.94 181.964,137.232 181.391,137.516C180.668,137.873 180.001,137.779 179.358,137.296C179.025,137.047 178.827,136.746 178.821,136.341C178.808,135.427 178.724,134.501 178.838,133.602C178.958,132.652 179.586,131.953 180.423,131.49C181.089,131.12 181.771,130.777 182.461,130.455C183.003,130.203 183.423,129.857 183.654,129.291C183.859,128.784 184.248,128.414 184.624,128.033C185.154,127.494 185.723,126.989 186.249,126.329C185.93,126.139 185.686,125.993 185.376,125.809C185.47,125.632 185.515,125.434 185.639,125.329C186.902,124.25 188.298,123.445 189.981,123.21C190.425,123.148 190.872,123.005 191.28,122.817C191.78,122.586 192.285,122.514 192.826,122.489C194.43,122.414 195.922,122.773 197.333,123.525C198.545,124.171 199.782,124.756 201.135,125.057C201.468,125.132 201.796,125.244 202.115,125.367C202.796,125.631 203.416,125.984 203.923,126.533C204.354,127.002 204.86,127.426 203.974,128.173C204.594,128.103 204.888,127.992 205.075,127.681C205.106,127.237 204.801,126.984 204.565,126.69C204.352,126.424 204.129,126.16 203.961,125.865C203.796,125.576 203.977,125.218 204.299,125.154C204.914,125.032 205.496,125.042 206.021,125.488C206.362,125.778 206.77,125.992 207.106,126.211C207.301,126.146 207.422,126.132 207.513,126.072C208.33,125.537 209.198,125.209 210.201,125.291C210.487,125.315 210.82,125.302 210.986,124.868C210.436,124.417 209.826,124.046 209.097,123.979C208.549,123.93 208.062,123.77 207.582,123.523C206.769,123.103 205.953,122.689 205.126,122.3C204.624,122.062 204.219,121.724 203.961,121.244C203.545,120.473 203.146,119.692 202.779,118.896C202.545,118.384 202.535,117.874 202.986,117.423C203.386,117.021 203.848,116.947 204.351,117.106C204.916,117.284 205.398,117.577 205.515,118.233C205.528,118.307 205.541,118.386 205.533,118.459C205.439,119.327 205.867,119.979 206.363,120.632C206.83,121.247 207.311,121.806 208.036,122.136C208.483,122.339 208.884,122.644 209.313,122.889C209.509,123.001 209.717,123.102 209.932,123.166C210.841,123.433 211.754,123.683 212.685,123.944C212.728,123.695 212.453,123.636 212.323,123.498C211.805,122.94 211.239,122.425 210.741,121.85C210.256,121.288 210.686,120.591 211.278,120.62C211.463,120.629 211.648,120.622 211.767,120.622C212.062,120.348 211.943,120.123 211.817,119.942C211.69,119.76 211.519,119.584 211.329,119.472C210.284,118.849 209.256,118.186 208.162,117.659C207.43,117.307 206.776,116.789 205.873,116.726C205.056,116.668 204.263,116.303 203.458,116.074C202.873,115.907 202.294,115.712 201.7,115.583C200.254,115.268 198.802,114.984 197.318,114.68C197.186,114.871 197.079,115.017 196.981,115.169C196.842,115.385 196.649,115.473 196.398,115.432C196.248,115.408 196.098,115.379 195.951,115.337C195.211,115.131 194.46,115.046 193.692,115.074C193.503,115.081 193.311,115.064 193.123,115.035C192.888,114.998 192.681,114.895 192.62,114.64C192.556,114.373 192.746,114.222 192.915,114.068ZM183.702,139.015C183.714,139.118 183.778,139.251 183.913,139.251C183.976,139.251 184.054,139.222 184.149,139.147C183.99,138.709 183.826,138.26 183.663,137.81C183.668,138.215 183.656,138.619 183.702,139.015ZM226.178,178.507C226.655,178.887 227.152,179.228 227.778,179.228C227.861,179.228 227.946,179.222 228.033,179.209C228.143,179.194 228.261,179.215 228.373,179.234C228.816,179.308 228.982,179.49 229.071,179.99C229.101,180.159 228.983,180.372 229.29,180.514C229.795,179.854 229.704,178.811 230.751,178.332C230.459,178.217 230.386,178.157 230.327,178.169C229.299,178.375 228.389,178.074 227.501,177.579C227.031,177.317 226.596,177.033 226.225,176.643C225.575,175.958 224.847,175.342 224.322,174.54C224.205,174.361 224.039,174.166 223.713,174.311C223.398,175.496 224.001,176.419 224.712,177.259C225.121,177.742 225.675,178.107 226.178,178.507ZM187.379,157.623C188.395,158.203 189.414,158.779 190.564,159.431C190.728,158.891 190.696,158.511 190.286,158.233C189.972,158.021 189.648,157.823 189.329,157.619C188.882,157.334 188.41,157.081 187.992,156.757C187.065,156.039 186.166,155.283 185.25,154.549C185.144,154.465 184.999,154.428 184.812,154.341C184.653,154.873 184.897,155.247 185.146,155.539C185.807,156.316 186.471,157.104 187.379,157.623ZM216.264,193.952C216.454,194.132 216.666,194.287 217.041,194.595C217.096,194.212 217.156,194.031 217.14,193.859C217.08,193.217 217.001,192.576 216.915,191.937C216.89,191.752 216.834,191.564 216.757,191.394C216.059,189.866 215.284,188.39 214.147,187.125C213.589,186.505 213.131,185.815 212.954,184.957C212.662,183.544 212.011,182.31 210.919,181.34C210.459,180.931 210.227,180.447 210.281,179.827C210.337,179.184 210.1,178.639 209.714,178.137C209.46,177.805 209.256,177.435 209.005,177.101C208.846,176.89 208.667,176.679 208.455,176.528C208.122,176.294 207.764,176.257 207.381,176.602C207.49,176.895 207.584,177.177 207.698,177.45C208.068,178.326 208.423,179.209 208.826,180.071C209.277,181.035 209.704,182.022 210.271,182.917C210.806,183.761 211.245,184.634 211.609,185.555C211.835,186.129 211.971,186.712 211.952,187.335C211.939,187.752 211.914,188.192 212.026,188.585C212.443,190.047 213.274,191.287 214.403,192.274C215.032,192.825 215.658,193.377 216.264,193.952ZM201.07,128.947C201.14,129.105 201.282,129.229 201.467,129.464C201.965,129.043 202.397,128.864 202.909,129.133C202.997,129.18 203.137,129.176 203.238,129.145C203.445,129.082 203.554,128.953 203.433,128.779C202.725,128.719 202.059,128.664 201.392,128.61C201.355,128.606 201.315,128.611 201.28,128.621C201.115,128.669 201,128.787 201.07,128.947ZM185.239,141.21C185.83,141.583 186.429,141.744 187.032,141.744C187.555,141.744 188.082,141.622 188.607,141.412C189.036,141.24 189.433,141.145 189.921,141.184C190.427,141.225 190.961,141.031 191.467,140.888C191.735,140.814 191.88,140.565 191.912,140.275C191.997,139.483 192.127,138.691 192.158,137.897C192.18,137.309 192.438,136.975 192.959,136.787C193.424,136.62 193.906,136.485 194.348,136.27C194.943,135.981 195.506,135.728 196.196,135.979C196.507,136.091 196.891,136.077 197.163,135.809C197.254,135.719 197.3,135.548 197.298,135.415C197.298,135.348 197.151,135.248 197.056,135.225C196.627,135.124 196.235,135.258 195.84,135.422C195.03,135.757 194.184,135.756 193.387,135.451C192.826,135.235 192.325,134.86 191.809,134.539C191.687,134.463 191.555,134.327 191.524,134.197C191.337,133.411 191.202,132.613 191.728,131.898C192.089,131.41 192.485,130.945 192.888,130.491C193.173,130.168 193.438,129.855 193.361,129.363C193.287,129.302 193.206,129.223 193.113,129.16C192.987,129.076 192.856,128.996 192.719,128.929C192.382,128.765 192.108,128.896 192.041,129.259C192.006,129.445 191.99,129.637 191.986,129.826C191.971,130.367 191.718,130.761 191.28,131.062C190.904,131.32 190.532,131.589 190.182,131.881C189.142,132.75 189.001,133.266 189.417,134.569C189.429,134.604 189.456,134.633 189.509,134.719C189.686,134.828 189.921,134.954 190.135,135.108C190.502,135.373 190.574,135.737 190.278,136.09C189.988,136.439 189.645,136.747 189.306,137.05C189.026,137.299 188.848,137.583 188.98,137.952C189.253,138.719 188.964,139.292 188.384,139.762C188.063,140.022 187.724,140.269 187.37,140.482C187.045,140.678 186.698,140.851 186.34,140.973C185.986,141.093 185.607,141.134 185.239,141.21ZM188.051,114.394C188.11,114.388 188.169,114.384 188.227,114.384C188.585,114.384 188.928,114.502 189.261,114.659C189.804,114.914 190.233,115.236 190.324,115.886C190.354,116.102 190.489,116.302 190.602,116.57C190.205,117.072 189.769,117.23 189.245,117.246C188.911,117.256 188.566,117.29 188.248,117.389C187.7,117.56 187.195,117.461 186.695,117.25C186.561,117.193 186.423,117.101 186.334,116.989C186.122,116.723 185.937,116.438 185.745,116.157C185.511,115.814 185.507,115.431 185.638,115.066C185.693,114.914 185.876,114.735 186.028,114.705C186.696,114.571 187.373,114.469 188.051,114.394ZM111.546,175.282C115.947,149.326 133.741,127.929 157.575,118.455C157.526,118.557 157.441,118.656 157.317,118.735C156.933,118.98 156.529,119.197 156.121,119.4C154.685,120.111 153.282,120.871 152.039,121.899C151.749,122.14 151.42,122.354 151.077,122.509C150.262,122.879 149.595,123.427 148.986,124.071C148.464,124.624 147.901,125.141 147.376,125.694C146.833,126.265 146.142,126.587 145.427,126.848C145.082,126.974 144.684,126.957 144.415,126.992C143.572,127.726 142.803,128.403 142.024,129.07C141.852,129.217 141.664,129.356 141.461,129.454C140.875,129.739 140.324,130.063 139.847,130.518C139.698,130.66 139.425,130.792 139.241,130.757C138.352,130.587 137.967,131.075 137.804,131.855C137.768,132.027 138.026,132.279 138.15,132.499C138.094,132.631 138.066,132.746 138.001,132.834C137.209,133.903 136.378,134.946 135.626,136.043C134.978,136.988 134.496,138.029 134.252,139.159C134.04,140.143 133.595,141.031 133.093,141.882C132.85,142.292 132.433,142.599 132.034,143.015C132.073,143.243 132.12,143.53 132.175,143.848C132.065,143.992 131.964,144.154 131.833,144.287C131.548,144.578 131.419,144.925 131.444,145.324C131.488,146.036 131.277,146.666 130.921,147.277C130.713,147.636 130.625,148.061 130.434,148.432C130.263,148.764 130.068,149.106 129.807,149.366C129.439,149.731 128.91,149.676 128.636,149.244C128.359,148.807 127.98,148.518 127.568,148.237C127.142,147.944 127.09,147.682 127.384,147.282C127.878,146.612 128.28,145.858 129.044,145.427C129.094,145.399 129.102,145.296 129.148,145.184C129.049,145.161 128.947,145.102 128.867,145.125C128.685,145.175 128.518,145.273 128.339,145.338C126.945,145.839 126.186,146.956 125.564,148.203C125.551,148.231 125.577,148.277 125.588,148.334C125.769,148.496 125.938,148.42 126.109,148.345C126.211,148.3 126.314,148.254 126.422,148.26C126.812,148.283 127.071,148.599 126.918,148.96C126.83,149.166 126.709,149.367 126.563,149.536C125.542,150.716 124.309,151.57 122.792,151.999C122.432,152.1 122.087,152.269 121.751,152.435C121.29,152.664 120.961,153.033 120.767,153.508C120.4,154.404 119.843,155.156 119.142,155.826C118.82,156.134 118.583,156.544 118.36,156.937C117.856,157.832 117.371,158.74 116.902,159.654C116.695,160.059 116.551,160.497 116.364,160.912C115.975,161.781 115.579,162.646 115.182,163.511C114.706,164.548 114.18,165.565 113.759,166.625C113.281,167.828 112.953,169.081 112.858,170.384C112.833,170.723 112.755,171.06 112.695,171.397C112.51,172.442 112.107,173.449 112.129,174.535C112.132,174.68 112.077,174.842 112.001,174.967C111.882,175.163 111.728,175.272 111.546,175.282ZM162.768,126.541C162.937,126.526 163.106,126.517 163.274,126.517C163.673,126.517 164.066,126.573 164.442,126.753C164.908,126.976 165.383,126.994 165.883,126.859C166.321,126.741 166.771,126.657 167.221,126.594C167.479,126.558 167.751,126.563 168.008,126.606C168.254,126.648 168.416,126.847 168.395,127.098C168.354,127.586 168.303,128.078 168.195,128.555C168.099,128.979 167.837,129.307 167.375,129.412C167.227,129.445 167.08,129.489 166.931,129.511C166.1,129.639 165.312,129.88 164.577,130.303C164.095,130.581 163.59,130.594 163.04,130.438C162.354,130.243 161.642,130.141 160.921,129.995C160.802,129.532 160.689,129.1 160.573,128.654C160.944,128.216 161.367,127.866 161.57,127.294C161.73,126.847 162.241,126.588 162.768,126.541ZM110.75,181.601C110.868,180.178 111.026,178.766 111.223,177.366C111.291,177.403 111.358,177.454 111.419,177.496C111.473,177.533 111.518,177.626 111.517,177.694C111.498,178.811 111.861,179.865 112.024,180.952C112.069,181.248 112.032,181.557 112.032,181.992C112.643,182.381 113.218,182.813 113.909,183.057C114.32,183.203 114.475,183.538 114.473,183.957C114.471,184.451 114.241,184.76 113.743,184.807C113.209,184.859 112.698,184.927 112.208,185.181C111.898,185.341 111.627,185.181 111.467,184.858C111.259,184.431 111.212,183.985 111.299,183.523C111.34,183.299 111.41,183.079 111.44,182.854C111.488,182.5 111.454,182.152 111.113,181.945C110.952,181.847 110.835,181.731 110.75,181.601ZM110.487,187.85C110.487,187.302 110.496,186.757 110.508,186.211C110.574,186.317 110.637,186.429 110.654,186.545C110.691,186.807 110.689,187.076 110.693,187.343C110.706,188.178 110.661,189.012 110.88,189.839C110.974,190.198 110.913,190.597 110.927,190.978C110.94,191.314 110.959,191.649 110.975,191.985C111.044,192.01 111.113,192.035 111.181,192.06C111.317,191.842 111.43,191.605 111.592,191.409C111.896,191.04 112.391,191.069 112.661,191.451C112.922,191.822 113.195,192.186 113.432,192.572C113.664,192.949 113.978,193.184 114.396,193.322C114.766,193.446 115.012,193.735 115.274,194.021C116.081,194.898 116.579,195.981 117.284,196.924C117.852,197.686 118.381,198.482 119.005,199.195C119.317,199.552 119.773,199.83 120.217,200.016C120.925,200.31 121.384,200.812 121.811,201.417C122.413,202.271 122.777,203.223 123.131,204.188C123.328,204.723 123.559,205.248 123.729,205.793C123.918,206.398 124.354,206.831 124.712,207.319C124.838,207.491 125.062,207.608 125.262,207.705C125.5,207.821 125.755,207.928 126.014,207.971C126.815,208.103 127.437,208.491 127.858,209.186C128.164,209.692 128.609,209.877 129.193,209.901C130.85,209.971 132.281,210.627 133.544,211.679C134.332,212.336 135.121,212.991 135.919,213.634C136.719,214.278 137.038,215.172 137.146,216.126C137.266,217.194 137.124,218.233 136.664,219.246C136.352,219.929 136.21,220.693 136.037,221.433C135.933,221.883 136.035,222.33 136.194,222.775C136.45,223.49 136.649,224.226 136.881,224.95C137.089,225.6 137.301,226.249 137.522,226.895C137.707,227.437 137.881,227.974 137.881,228.56C137.881,228.897 137.968,229.235 138.012,229.573C138.045,229.837 138.093,230.101 138.099,230.365C138.124,231.352 138.042,231.463 137.144,231.784C136.032,232.181 135.758,232.669 136.125,233.753C136.379,234.506 136.661,235.247 137.129,235.918C138.116,237.335 138.845,238.878 139.139,240.599C139.183,240.861 139.277,241.125 139.266,241.384C139.235,242.075 139.537,242.538 140.122,242.875C140.348,243.004 140.527,243.218 140.724,243.397C141.049,243.691 141.258,244.044 141.237,244.497C141.212,245 141.439,245.361 141.82,245.668C143.031,246.647 144.233,247.637 145.435,248.626C146.022,249.109 146.596,249.608 147.19,250.082C147.517,250.342 147.85,250.612 148.22,250.797C150.227,251.805 152.096,253.061 154.129,254.028C155.642,254.749 157.175,255.416 158.726,256.047C159.301,256.281 159.563,256.568 159.387,256.787C159.112,257.127 158.776,256.966 158.455,256.842C157.533,256.484 156.601,256.148 155.689,255.766C154.495,255.267 153.309,254.749 152.136,254.205C151.516,253.917 150.933,253.548 150.328,253.23C147.599,251.791 144.953,250.211 142.391,248.498C140.813,247.441 139.326,246.258 137.929,244.96C137.013,244.108 136.016,243.343 135.072,242.52C134.642,242.145 134.188,241.769 133.863,241.31C133.217,240.399 132.407,239.651 131.617,238.885C130.383,237.689 129.325,236.348 128.278,234.997C127.441,233.916 126.625,232.816 125.835,231.7C125.088,230.645 124.375,229.567 123.669,228.484C122.922,227.338 122.156,226.212 121.252,225.174C120.203,223.969 119.257,222.668 118.54,221.238C117.624,219.409 116.729,217.569 115.866,215.714C114.246,211.69 112.965,207.494 112.061,203.158C112.02,202.566 111.896,201.997 111.77,201.428C111.705,201.136 111.637,200.845 111.569,200.555C110.861,196.426 110.487,192.182 110.487,187.85ZM217.902,224.109C218.032,223.766 218.263,223.529 218.61,223.529C218.663,223.529 218.719,223.535 218.777,223.546C219.279,223.644 219.712,223.887 219.894,224.406C219.939,224.534 219.931,224.732 219.86,224.841C219.574,225.28 219.58,225.772 219.508,226.26C219.455,226.623 219.323,227.014 219.11,227.307C218.476,228.18 218.038,229.141 217.698,230.152C217.57,230.533 217.376,230.846 217.027,231.034C215.83,231.683 215.151,232.765 214.561,233.928C214.51,234.029 214.443,234.127 214.412,234.235C214.071,235.385 213.214,236.047 212.202,236.542C211.835,236.72 211.422,236.805 211.033,236.932C210.552,236.809 210.104,236.726 209.678,236.578C209.261,236.434 209.091,236.132 209.131,235.686C209.151,235.462 209.216,235.24 209.28,235.022C209.644,233.777 210.105,232.573 210.962,231.575C211.309,231.173 211.466,230.743 211.444,230.224C211.396,229.088 212.168,228.345 212.779,227.537C212.894,227.386 213.178,227.322 213.393,227.293C214.533,227.14 215.479,226.642 216.251,225.788C216.451,225.566 216.701,225.379 216.949,225.207C217.362,224.919 217.719,224.596 217.902,224.109Z" style="fill:white;"/>
            </g>
        </g>
        <g transform="matrix(1.28057,0,0,1.28057,21.6515,9.36557)">
            <path d="M94.322,179.331C93.976,179.012 93.643,178.678 93.323,178.345C88.779,173.682 85.754,168.112 84.235,162.249L41.036,229.193L109.167,187.859C104.21,186.434 99.506,183.915 95.415,180.317C95.042,180.011 94.682,179.678 94.322,179.331Z" style="fill:white;"/>
        </g>
        <path d="M152.437,164.515C148.874,166.435 145.506,168.857 142.437,171.782L142.437,163.812L144.937,163.812L144.937,158.498L142.437,158.498L142.437,153.184L144.937,153.184L144.937,147.87L142.437,147.87L142.437,142.556L144.937,142.556L144.937,137.242L142.437,137.242L142.437,131.929L144.937,131.929L144.937,126.615L142.437,126.615L142.437,121.301L144.937,121.301L144.937,115.987L142.437,115.987L142.437,110.673L144.937,110.673L144.937,110.517L145,110.517L145,108.017L150.125,108.017L150.125,110.517L155.25,110.517L155.25,108.017L160.375,108.017L160.375,110.517L165.501,110.517L165.501,108.017L170.626,108.017L170.626,110.517L175.751,110.517L175.751,108.017L180.876,108.017L180.876,110.517L186.002,110.517L186.002,108.017L191.127,108.017L191.127,110.517L196.252,110.517L196.252,108.017L201.377,108.017L201.377,110.517L206.503,110.517L206.503,108.017L211.628,108.017L211.628,110.517L216.753,110.517L216.753,108.017L221.879,108.017L221.879,110.517L227.004,110.517L227.004,108.017L232.129,108.017L232.129,110.517L237.254,110.517L237.254,108.017L242.379,108.017L242.379,110.517L247.505,110.517L247.505,108.017L255.192,108.017L238.867,117.921L152.437,117.921L152.437,164.515ZM230.625,122.921L170.96,159.119C166.358,159.459 161.796,160.484 157.437,162.196C157.437,141.385 157.437,122.921 157.437,122.921L230.625,122.921ZM187.501,160.78L187.501,160.878C187.465,160.868 187.429,160.857 187.392,160.846L187.501,160.78Z" style="fill:white;"/>
        <path d="M264.629,141.861L274.629,126.364L274.629,132.437L272.629,132.437L272.629,136.485L274.629,136.485L274.629,140.534L272.629,140.534L272.629,144.582L274.629,144.582L274.629,148.631L272.629,148.631L272.629,152.679L274.629,152.679L274.629,156.728L272.629,156.728L272.629,160.776L274.629,160.776L274.629,164.824L272.629,164.824L272.629,168.873L274.629,168.873L274.629,172.921L272.629,172.921L272.629,176.97L274.629,176.97L274.629,181.018L272.629,181.018L272.629,185.067L274.629,185.067L274.629,189.115L272.629,189.115L272.629,193.164L274.629,193.164L274.629,197.212L272.629,197.212L272.629,201.261L274.629,201.261L274.629,205.309L272.629,205.309L272.629,209.358L274.629,209.358L274.629,213.406L272.629,213.406L272.629,217.454L274.629,217.454L274.629,221.503L272.629,221.503L272.629,225.551L274.629,225.551L274.629,229.6L272.629,229.6L272.629,233.648L274.629,233.648L274.629,237.697L272.629,237.697L272.629,237.721C272.629,237.721 272.459,237.721 272.459,237.721L272.459,239.721L268.118,239.721L268.118,237.721L263.777,237.721L263.777,239.721L259.436,239.721L259.436,237.721L255.095,237.721L255.095,239.721L250.754,239.721L250.754,237.721L246.413,237.721L246.413,239.721L242.072,239.721L242.072,237.721L237.731,237.721L237.731,239.721L233.391,239.721L233.391,237.721L229.05,237.721L229.05,239.721L224.709,239.721L224.709,237.721L220.368,237.721L220.368,239.721L216.027,239.721L216.027,237.721L211.686,237.721L211.686,239.721L208.133,239.721L208.137,239.716L207.345,238.89L207.345,237.721L207.318,237.721C209.801,235.249 211.946,232.563 213.751,229.721L264.629,229.721L264.629,141.861ZM216.506,224.721C218.717,220.04 220.101,215.061 220.654,210.007L259.629,149.609L259.629,224.721L216.506,224.721ZM219.475,193.392C219.453,193.308 219.431,193.224 219.409,193.141L219.637,193.141L219.475,193.392Z" style="fill:white;"/>
    </g>
</svg>
